<svg width="300" height="128" viewBox="0 0 300 128" fill="none" xmlns="http://www.w3.org/2000/svg">
<g clip-path="url(#clip0_30_3)">
<path d="M149.996 9.90729C147.969 4.85209 143.031 -0.607485 133.785 0.142426C122.006 1.42174 118.335 12.699 120.115 19.4269C115.424 16.2533 107.447 14.8576 100.484 20.8161C91.494 29.8194 96.3026 41.995 101.245 44.9156C95.7979 44.4116 87.1898 48.0886 85.2854 57.7067C83.2595 69.6485 92.3718 76.6102 101.245 76.6102H199.636C209.897 76.6102 215.59 67.7425 214.951 59.3794C213.944 48.4646 203.947 44.2768 198.493 45.1739C203.049 42.6345 209.135 30.7049 199.882 21.3265C192.537 14.3472 183.174 16.8864 179.881 19.9307C181.656 14.1002 178.746 2.04777 166.833 0.141281C166.01 0.0492308 165.217 0 164.462 0C155.367 0.000915921 151.279 6.64203 149.996 9.90729Z" fill="white"/>
<path d="M102.123 22.7165C96.9281 27.4145 95.0374 38.0593 104.402 44.2821L141.76 69.8878L123.646 28.4289C119.85 18.6454 109.467 16.512 102.123 22.7165" fill="#F37021"/>
<path d="M134.281 2.55914C128.208 2.68256 119.09 9.90712 123.148 20.9389L141.882 65.0797L148.465 18.6521C149.989 7.11585 141.25 1.79045 134.281 2.55914" fill="#CC004C"/>
<path d="M151.39 16.8815H154.932C154.932 16.8815 156.824 16.8815 157.081 17.773C155.687 18.9103 151.892 19.0527 152.396 25.128L158.352 65.0737L176.958 20.8168C180.764 10.9351 172.775 2.68247 165.689 2.43013C165.358 2.40632 165.026 2.38708 164.682 2.38708C158.322 2.38686 151.033 7.00493 151.39 16.8815" fill="#6460AA"/>
<path d="M176.209 28.8045L158.61 69.7659L195.958 44.0251C204.567 37.9246 203.178 28.1714 198.359 23.3507C196.339 21.0817 192.629 19.3289 188.7 19.3289C184.057 19.3282 179.089 21.7881 176.209 28.8045" fill="#0089D0"/>
<path d="M191.776 49.8536L156.702 74.3286H199.888C208.748 74.3286 214.441 65.2017 211.91 56.8267C210.215 51.5627 205.2 47.4303 199.378 47.4243C196.928 47.4255 194.329 48.1628 191.776 49.8536" fill="#0DB14B"/>
<path d="M101.116 74.3286H143.665L108.582 49.8535C100.478 44.6511 91.3642 47.6952 88.0743 56.3282C85.2856 66.211 92.2485 74.3286 101.116 74.3286Z" fill="#FCB711"/>
<path d="M148.237 107.815H156.13C157.944 107.929 161.161 109.512 161.161 113.26C161.161 117.181 157.823 118.762 156.014 118.941H148.237V107.815ZM148.116 90.3623H154.613C156.834 90.482 159.46 92.1215 159.46 95.1654C159.46 98.151 157.475 100.141 154.906 100.496H148.116V90.3623ZM139.234 83.0992V126.197H160.166C165.134 126.197 171.039 121.222 171.039 114.722C171.039 107.93 166.598 104.595 163.788 103.247C163.788 103.247 168.934 100.261 168.705 93.818C168.471 85.1511 160.457 83.0992 157.709 83.0992H139.234V83.0992ZM107.129 126.197V101.374L134.26 127.836V83.0992H125.143V107.287L98.006 81.3466V126.197H107.129ZM172.505 104.181C172.734 117.81 182.536 128 195.137 128C198.125 128 201.272 127.435 204.489 126.197V117.415C201.94 118.972 199.103 119.722 196.323 119.722C188.698 119.722 181.503 114.085 181.8 103.831C182.314 95.5139 189.13 89.7706 196.476 89.7706C199.165 89.7706 201.932 90.5448 204.489 92.236V83.69C201.508 82.4826 198.544 81.9427 195.689 81.9427C183.12 81.9424 172.747 92.5348 172.505 104.181" fill="black"/>
</g>
<defs>
<clipPath id="clip0_30_3">
<rect width="130" height="128" fill="white" transform="translate(85)"/>
</clipPath>
</defs>
</svg>
