<svg width="168" height="36" viewBox="0 0 168 36" fill="none" xmlns="http://www.w3.org/2000/svg" role="img" aria-label="EiffelFi">
  <defs>
    <linearGradient id="ef-mark" x1="2" y1="2" x2="34" y2="34" gradientUnits="userSpaceOnUse">
      <stop stop-color="#C4B8FF"/>
      <stop offset="0.35" stop-color="#8977FF"/>
      <stop offset="1" stop-color="#4D3FED"/>
    </linearGradient>
    <linearGradient id="ef-fi" x1="96" y1="10" x2="132" y2="28" gradientUnits="userSpaceOnUse">
      <stop stop-color="#7461FF"/>
      <stop offset="1" stop-color="#4D3FED"/>
    </linearGradient>
  </defs>
  <rect x="1" y="1" width="34" height="34" rx="10" fill="url(#ef-mark)"/>
  <rect x="1" y="1" width="34" height="34" rx="10" stroke="#FFFFFF" stroke-opacity="0.2"/>
  <path d="M18 7.5C18 7.5 22.8 17.2 23.2 22.2H20.8L20 18.6H16L15.2 22.2H12.8C13.2 17.2 18 7.5 18 7.5Z" fill="#FFFFFF"/>
  <path d="M13.4 21.2H22.6L24.2 25.4H11.8L13.4 21.2Z" fill="#FFFFFF" fill-opacity="0.94"/>
  <path d="M11.2 26.4H24.8V28.6H11.2V26.4Z" fill="#FFFFFF" fill-opacity="0.88"/>
  <circle cx="18" cy="6.4" r="1.15" fill="#FFFFFF"/>
  <text x="44" y="24.5" font-family="Inter, system-ui, -apple-system, BlinkMacSystemFont, 'Segoe UI', sans-serif" font-size="20" font-weight="700" letter-spacing="-0.55" fill="#1A1147">Eiffel</text>
  <text x="99" y="24.5" font-family="Inter, system-ui, -apple-system, BlinkMacSystemFont, 'Segoe UI', sans-serif" font-size="20" font-weight="700" letter-spacing="-0.55" fill="url(#ef-fi)">Fi</text>
</svg>
